<svg xmlns="http://www.w3.org/2000/svg" viewBox="0 0 66 66"><path d="M7.05 58.37c0 1.05.85 1.9 1.9 1.9h7.17c1.04 0 1.89-.85 1.89-1.9V51.2c0-1.04-.85-1.89-1.89-1.89H8.95c-1.05 0-1.9.85-1.9 1.89v7.17zm2-7.06h6.96v6.96H9.05v-6.96zm20.12-2H22c-1.05 0-1.9.85-1.9 1.89v7.17c0 1.05.85 1.9 1.9 1.9h7.17c1.04 0 1.89-.85 1.89-1.9V51.2c0-1.04-.85-1.89-1.89-1.89zm-.11 8.95H22.1V51.3h6.96v6.96zm13.16-21.95h-7.17a1.9 1.9 0 0 0-1.9 1.9v20.16c0 1.05.85 1.9 1.9 1.9h7.17c1.04 0 1.89-.85 1.89-1.9V38.2c0-1.04-.85-1.89-1.89-1.89zm-.11 21.95h-6.96V38.31h6.96v19.95zM7.05 45.37c0 1.05.85 1.9 1.9 1.9h7.17c1.04 0 1.89-.85 1.89-1.9V38.2c0-1.04-.85-1.9-1.89-1.9H8.95a1.9 1.9 0 0 0-1.9 1.9v7.17zm2-7.06h6.96v6.96H9.05v-6.96zm22.01-.11c0-1.04-.85-1.9-1.89-1.9H22a1.9 1.9 0 0 0-1.9 1.9v7.17c0 1.05.85 1.9 1.9 1.9h7.17c1.04 0 1.89-.85 1.89-1.9V38.2zm-2 7.07H22.1v-6.96h6.96v6.96zM7.05 32.37c0 1.05.85 1.9 1.9 1.9h7.17c1.04 0 1.89-.85 1.89-1.9V25.2c0-1.04-.85-1.9-1.89-1.9H8.95a1.9 1.9 0 0 0-1.9 1.9v7.17zm2-7.06h6.96v6.96H9.05v-6.96zm22.01-.11c0-1.04-.85-1.9-1.89-1.9H22a1.9 1.9 0 0 0-1.9 1.9v7.17c0 1.05.85 1.9 1.9 1.9h7.17c1.04 0 1.89-.85 1.89-1.9V25.2zm-2 7.07H22.1v-6.96h6.96v6.96zm15.05-7.07c0-1.04-.85-1.9-1.89-1.9h-7.17a1.9 1.9 0 0 0-1.9 1.9v7.17c0 1.05.85 1.9 1.9 1.9h7.17c1.04 0 1.89-.85 1.89-1.9V25.2zm-2 7.07h-6.96v-6.96h6.96v6.96z"/><path d="M47.69 53.78c-.55 0-1 .45-1 1v7.58c0 .59-.48 1.08-1.08 1.08H5.55c-.59 0-1.08-.48-1.08-1.08V14.34c0-.55-.45-1-1-1s-1 .45-1 1v48.02c0 1.7 1.38 3.08 3.08 3.08h40.07c1.7 0 3.08-1.38 3.08-3.08v-7.58c-.01-.56-.46-1-1.01-1zM45.62.43H5.55c-1.7 0-3.08 1.38-3.08 3.08v5.58c0 .55.45 1 1 1s1-.45 1-1V3.51c0-.59.48-1.08 1.08-1.08h40.07c.59 0 1.08.48 1.08 1.08v46.8c0 .55.45 1 1 1s1-.45 1-1V3.51c-.01-1.7-1.39-3.08-3.08-3.08z"/><path d="M44.11 6.81c0-.55-.45-1-1-1H8.05c-.55 0-1 .45-1 1v12.8c0 .55.45 1 1 1h9.52c.55 0 1-.45 1-1s-.45-1-1-1H9.05V7.81h33.06v10.8H22.86c-.55 0-1 .45-1 1s.45 1 1 1h20.25c.55 0 1-.45 1-1V6.81zm19.42 19.08c0-.01-.01-.03-.01-.04 0-.1-.02-.21-.06-.31-.01-.02-.01-.04-.02-.06 0-.01 0-.02-.01-.02l-5.2-11.03c-.17-.35-.52-.57-.9-.57-.39 0-.74.22-.9.57l-5.2 11.03c0 .01 0 .02-.01.02-.01.02-.01.04-.02.06-.04.1-.06.2-.06.31 0 .01-.01.03-.01.04V62.19c0 1.86 1.51 3.37 3.37 3.37h5.66a3.37 3.37 0 0 0 3.36-3.37v-36.3zm-10.39 1h8.39V56.3h-8.39V26.89zm4.19-9.68 3.62 7.68h-7.24l3.62-7.68zm4.2 44.99c0 .75-.61 1.37-1.36 1.37H54.5c-.76 0-1.37-.61-1.37-1.37v-3.9h8.39v3.9z"/></svg>