<svg xmlns="http://www.w3.org/2000/svg" width="655.359" height="655.359" fill-rule="evenodd" clip-rule="evenodd" image-rendering="optimizeQuality" shape-rendering="geometricPrecision" text-rendering="geometricPrecision" viewBox="0 0 6.827 6.827"><defs><clipPath id="a"><path d="M3.413 0a3.413 3.413 0 1 1 0 6.827 3.413 3.413 0 0 1 0-6.827z"/></clipPath></defs><path fill="#ffa000" d="M3.413 0a3.413 3.413 0 1 1 0 6.827 3.413 3.413 0 0 1 0-6.827z"/><g fill="#c07a06" clip-path="url(#a)"><path d="m5.399 1.497 3.786 3.786.004.005.003.005.003.006.002.006.001.006.001.006.001.006-3.787-3.786v-.006l-.001-.007-.001-.006-.003-.005-.002-.006-.003-.005z"/><path d="M5.413 1.537 9.2 5.323v2.943L5.413 4.48z"/><path d="M5.413 4.48 9.2 8.266l-.001.006-.001.006-.001.006-.002.006-.003.006-.003.005-.004.005-.004.004-.004.004-.005.004-.005.003-.006.002-.005.003-.006.001-.007.001h-.006L5.351 4.542h.006l.006-.001.006-.002.006-.002.006-.002.005-.004.005-.003.004-.004.004-.005.004-.004.003-.006.002-.005.003-.006.001-.006.001-.006z"/><path d="m5.351 4.542 3.786 3.786h-.658L4.692 4.542zM4.116 4.542l3.786 3.786H6.497L2.71 4.542z"/><path d="m4.692 4.542 3.787 3.786.144.736-3.786-3.786zM4.787 5.351l3.787 3.786-.002.001h-.011L4.774 5.352H4.784l.002-.001z"/><path d="m4.774 5.352 3.787 3.786h-.394L4.381 5.352z"/><path d="m4.381 5.352 3.786 3.786h-.005l-.006-.001-.005-.001-.005-.001-.005-.002-.005-.003-.004-.003-.004-.003-.004-.003-3.786-3.786.003.003.005.003.004.003.005.002.005.002.005.002.005.001.006.001zM4.837 5.278l3.786 3.786.001.006V9.083l-.001.006-.002.006-.002.005-.002.006-.003.005-.004.005-.004.004-.004.004-.005.004-.006.003-.005.003-.006.002-.006.001-3.787-3.786.007-.002.006-.002.005-.002.005-.003.005-.004.005-.004.004-.005.003-.004.003-.006.003-.005.002-.006.002-.006.001-.006v-.012zM2.134 4.542 5.92 8.328h-.658L1.476 4.542z"/><path d="m2.507 5.303 3.786 3.786-.001.005-.002.005-.002.005-.003.005-.003.004-.003.004-.004.004-.004.003-.004.003-.004.003-.005.003-.005.002-.005.001-.005.001-.006.001h-.005L2.446 5.352h.005l.006-.001.005-.001.005-.002.005-.002.005-.002.004-.003.004-.003.004-.003.004-.004.003-.004.003-.005.002-.004.003-.005.001-.005zM1.476 4.542l3.786 3.786h-.006l-.006-.001-.006-.001-.006-.003-.006-.002-.005-.003-.005-.004-3.786-3.786.005.003.005.004.006.002.005.002.006.002.006.001zM2.052 5.352l3.786 3.786H5.827l-.002-.001-3.786-3.786h.002l.001.001H2.051z"/><path d="m2.039 5.351 3.786 3.786-.006-.001-.006-.002-.005-.003-.005-.003-.005-.004-3.787-3.786.005.004.005.003.006.002.006.002zM2.71 4.542l3.787 3.786-.204.761-3.786-3.786zM2.446 5.352l3.786 3.786h-.394L2.052 5.352z"/><path d="M1.476 1.474H5.35c.034 0 .062.028.062.063V4.48a.063.063 0 0 1-.062.062h-.659l.145.736a.063.063 0 0 1-.063.074h-.393a.063.063 0 0 1-.061-.05l-.204-.76H2.71l-.203.76a.063.063 0 0 1-.061.05h-.394l-.013-.001a.063.063 0 0 1-.05-.073l.145-.736h-.658a.063.063 0 0 1-.063-.062V1.537c0-.035.028-.063.063-.063z"/></g><path fill="none" d="M3.413 0a3.413 3.413 0 1 1 0 6.827 3.413 3.413 0 0 1 0-6.827z"/><path fill="#fffffe" fill-rule="nonzero" d="M1.476 1.474H5.35c.034 0 .062.028.062.063V4.48a.063.063 0 0 1-.062.062H1.476a.063.063 0 0 1-.063-.062V1.537c0-.035.028-.063.063-.063zm3.812.125h-3.75v2.818h3.75V1.6z"/><path fill="#fffffe" fill-rule="nonzero" d="M1.971 1.85h2.885c.034 0 .062.029.062.063v2.19a.063.063 0 0 1-.062.063H1.97a.063.063 0 0 1-.062-.063v-2.19c0-.034.028-.062.062-.062zm2.822.126h-2.76V4.04h2.76V1.976zM2.26 4.55l-.133.677h.27l.178-.663-.315-.014zm-.27.728.157-.802a.063.063 0 0 1 .065-.053l.441.02a.063.063 0 0 1 .063.079l-.21.78a.063.063 0 0 1-.06.05h-.394l-.013-.001a.063.063 0 0 1-.05-.073zm2.69-.802.157.802a.063.063 0 0 1-.063.074h-.393a.063.063 0 0 1-.061-.05l-.21-.78a.063.063 0 0 1 .063-.079l.442-.02a.063.063 0 0 1 .065.053zm.02.751-.133-.677-.316.014.178.663h.27z"/><path fill="#fffffe" fill-rule="nonzero" d="M2.773 3.454h-.11v-.707a.745.745 0 0 1-.222.134v-.107a.675.675 0 0 0 .162-.106.422.422 0 0 0 .099-.121h.071v.907zm.548-.146V3.06h-.246v-.103h.246V2.71h.105v.246h.246v.103h-.246v.248H3.32zm.474-.093.11-.014a.246.246 0 0 0 .066.136.16.16 0 0 0 .112.041.184.184 0 0 0 .186-.189.17.17 0 0 0-.177-.175.318.318 0 0 0-.078.012l.012-.097.018.001c.047 0 .09-.012.127-.037.038-.024.057-.063.057-.114a.134.134 0 0 0-.041-.1.147.147 0 0 0-.107-.041.151.151 0 0 0-.108.04.204.204 0 0 0-.055.123l-.111-.02a.285.285 0 0 1 .092-.173.268.268 0 0 1 .18-.061c.049 0 .094.01.136.031a.231.231 0 0 1 .128.204.19.19 0 0 1-.031.106.216.216 0 0 1-.093.077.209.209 0 0 1 .124.076c.03.04.044.088.044.146a.266.266 0 0 1-.086.2.303.303 0 0 1-.218.083.273.273 0 0 1-.287-.254z"/></svg>